<?xml version="1.0" encoding="UTF-8"?>
<svg width="256px" height="256px" viewBox="0 0 256 256" version="1.1" xmlns="http://www.w3.org/2000/svg" xmlns:xlink="http://www.w3.org/1999/xlink">
    <!-- Generator: Sketch 61.1 (89650) - https://sketch.com -->
    <title>Artboard Copy 5</title>
    <desc>Created with Sketch.</desc>
    <g id="Artboard-Copy-5" stroke="none" stroke-width="1" fill="none" fill-rule="evenodd">
        <g id="icon">
            <rect id="Rectangle" fill="#3C3C3C" x="0" y="0" width="256" height="256"></rect>
            <g id="Rectangle-2" transform="translate(22.000000, 22.000000)">
                <g id="path-1-link" fill="#000000">
                    <path d="M6,0 L206,0 C209.313708,0 212,2.6862915 212,6 L212,207 C212,209.761424 209.761424,212 207,212 L5,212 C2.2385763,212 0,209.761424 0,207 L0,6 C0,2.6862915 2.6862915,0 6,0 Z" id="path-1"></path>
                </g>
                <g id="path-1-link" fill="#FFFFFF">
                    <path d="M6,0 L206,0 C209.313708,0 212,2.6862915 212,6 L212,207 C212,209.761424 209.761424,212 207,212 L5,212 C2.2385763,212 0,209.761424 0,207 L0,6 C0,2.6862915 2.6862915,0 6,0 Z" id="path-1"></path>
                </g>
            </g>
            <path d="M27,22 L229,22 C231.761424,22 234,24.2385763 234,27 L234,96 L22,96 L22,27 C22,24.2385763 24.2385763,22 27,22 Z" id="Rectangle" fill="#FF6767"></path>
            <g id="woocommerce_logo" transform="translate(43.000000, 44.000000)" fill="#FFFFFF">
                <path d="M52.3149171,0.0465753425 C55.2734807,0.0465753425 57.6685083,2.42191781 57.6685083,5.35616438 L57.6685083,23.0547945 C57.6685083,25.9890411 55.2734807,28.3643836 52.3149171,28.3643836 L35.5497238,28.3643836 L37.8508287,33.9534247 L27.730663,28.3643836 L5.58839779,28.3643836 C2.62983425,28.3643836 0.234635441,25.9890411 0.234635441,23.0547945 L0.234635441,5.35616438 C0.211325967,2.44520548 2.60635359,0.0465753425 5.56491713,0.0465753425 L52.3149171,0.0465753425 Z M24.8799366,3.15932879 L24.7016575,3.16712329 C24.0207182,3.21369863 23.5041436,3.53972603 23.1519337,4.19178082 C21.6961326,6.82328767 20.6629834,11.0849315 20.0524862,17 C19.160221,14.7643836 18.4088398,12.1328767 17.8218232,9.03561644 C17.5635359,7.66164384 16.929558,7.00958904 15.8964088,7.07945205 C15.191989,7.1260274 14.6049724,7.59178082 14.1353591,8.47671233 L14.1353591,8.47671233 L8.99309392,18.1876712 C8.14779006,14.8109589 7.34944751,10.6890411 6.62154696,5.82191781 C6.45718232,4.6109589 5.77624309,4.05205479 4.57872928,4.14520548 C3.92127072,4.19178082 3.4281768,4.42465753 3.09944751,4.86712329 C2.77071823,5.28630137 2.65331492,5.82191781 2.72375691,6.42739726 C4.10911602,15.160274 5.40055249,21.0520548 6.5980663,24.1027397 C7.06767956,25.2205479 7.60773481,25.7561644 8.24171271,25.709589 C9.22790055,25.639726 10.4019337,24.2890411 11.7872928,21.6575342 C12.5151934,20.1671233 13.6422652,17.9315068 15.1685083,14.9506849 C16.4364641,19.3520548 18.1740331,22.6589041 20.3577348,24.8712329 C20.968232,25.5 21.6022099,25.7794521 22.2127072,25.7328767 C22.7527624,25.6863014 23.1754144,25.4068493 23.4571823,24.8945205 C23.691989,24.4520548 23.7859116,23.939726 23.7389503,23.3575342 C23.5980663,21.2383562 23.8093923,18.2808219 24.3964088,14.4849315 C25.0069061,10.5726027 25.7582873,7.75479452 26.6740331,6.07808219 C26.8618785,5.72876712 26.9323204,5.37945205 26.9088398,4.96027397 C26.8618785,4.42465753 26.6270718,3.98219178 26.1809392,3.63287671 C25.7348066,3.28356164 25.2417127,3.12054795 24.7016575,3.16712329 Z M48.558011,5.68219178 C46.3038674,5.68219178 44.4723757,6.84657534 43.0400552,9.17534247 C41.8190608,11.1547945 41.2085635,13.3438356 41.2085635,15.7424658 C41.2085635,17.5356164 41.5842541,19.0726027 42.3356354,20.3534247 C43.1809392,21.8205479 44.4254144,22.7054795 46.0925414,23.0547945 C46.538674,23.1479452 46.961326,23.1945205 47.3604972,23.1945205 C49.6381215,23.1945205 51.4696133,22.030137 52.878453,19.7013699 C54.0994475,17.6986301 54.7099448,15.509589 54.7099448,13.1109589 C54.7099448,11.2945205 54.3342541,9.78082192 53.5828729,8.52328767 C52.7375691,7.05616438 51.4930939,6.17123288 49.8259669,5.82191781 C49.3798343,5.72876712 48.9571823,5.68219178 48.558011,5.68219178 Z M33.8356354,5.68219178 C31.5814917,5.68219178 29.75,6.84657534 28.3176796,9.17534247 C27.0966851,11.1547945 26.4861878,13.3438356 26.4861878,15.7424658 C26.4861878,17.5356164 26.8618785,19.0726027 27.6132597,20.3534247 C28.4585635,21.8205479 29.7030387,22.7054795 31.3701657,23.0547945 C31.8162983,23.1479452 32.2389503,23.1945205 32.6381215,23.1945205 C34.9157459,23.1945205 36.7472376,22.030137 38.1560773,19.7013699 C39.3770718,17.6986301 39.9875691,15.509589 39.9875691,13.1109589 C39.9875691,11.2945205 39.6118785,9.78082192 38.8604972,8.52328767 C38.0151934,7.05616438 36.7472376,6.17123288 35.1035912,5.82191781 C34.6574586,5.72876712 34.2348066,5.68219178 33.8356354,5.68219178 Z M48.980663,9.61780822 C49.5441989,9.73424658 50.0138122,10.2232877 50.3660221,11.1315068 C50.6477901,11.8534247 50.788674,12.5753425 50.788674,13.2506849 C50.788674,13.8561644 50.718232,14.4383562 50.6243094,14.9739726 C50.2955801,16.5109589 49.7085635,17.6520548 48.839779,18.4205479 C48.1588398,19.0260274 47.5248619,19.2821918 46.9378453,19.1657534 C46.3743094,19.0493151 45.9046961,18.560274 45.5524862,17.6520548 C45.2707182,16.930137 45.1298343,16.2082192 45.1298343,15.5328767 C45.1298343,14.9506849 45.1767956,14.3684932 45.2941989,13.8328767 C45.5055249,12.8780822 45.9046961,11.9465753 46.538674,11.0616438 C47.3135359,9.92054795 48.1353591,9.45479452 48.980663,9.61780822 Z M34.2582873,9.61780822 C34.8218232,9.73424658 35.2914365,10.2232877 35.6436464,11.1315068 C35.9254144,11.8534247 36.0662983,12.5753425 36.0662983,13.2506849 C36.0662983,13.8561644 36.019337,14.4383562 35.9019337,14.9739726 C35.5732044,16.5109589 34.9861878,17.6520548 34.1174033,18.4205479 C33.4364641,19.0260274 32.8024862,19.2821918 32.2154696,19.1657534 C31.6519337,19.0493151 31.1823204,18.560274 30.8301105,17.6520548 C30.5483425,16.930137 30.4074586,16.2082192 30.4074586,15.5328767 C30.4074586,14.9506849 30.4544199,14.3684932 30.5718232,13.8328767 C30.7831492,12.8780822 31.1823204,11.9465753 31.8162983,11.0616438 C32.5911602,9.92054795 33.4129834,9.45479452 34.2582873,9.61780822 Z" id="Combined-Shape"></path>
                <path d="M63.609116,8.31369863 C62.0359116,9.85068493 61.2610497,11.8068493 61.2610497,14.1821918 C61.2610497,16.7205479 62.0359116,18.7931507 63.5856354,20.3534247 C65.1353591,21.9136986 67.1546961,22.7054795 69.6671271,22.7054795 C70.3950276,22.7054795 71.2168508,22.5890411 72.109116,22.3328767 L72.109116,18.560274 C71.2872928,18.7931507 70.5828729,18.909589 69.9723757,18.909589 C68.7279006,18.909589 67.7417127,18.490411 66.9903315,17.6753425 C66.2389503,16.8369863 65.8632597,15.7191781 65.8632597,14.2986301 C65.8632597,12.9712329 66.2389503,11.8767123 66.9668508,11.0383562 C67.718232,10.1767123 68.6339779,9.75753425 69.7610497,9.75753425 C70.4889503,9.75753425 71.2638122,9.8739726 72.109116,10.1068493 L72.109116,6.33424658 C71.3342541,6.12465753 70.4654696,6.03150685 69.5497238,6.03150685 C67.1546961,6.00821918 65.1823204,6.77671233 63.609116,8.31369863 Z M79.9046961,6.00821918 C77.7444751,6.00821918 76.0538674,6.73013699 74.8328729,8.15068493 C73.6118785,9.57123288 73.0248619,11.5739726 73.0248619,14.1356164 C73.0248619,16.9068493 73.6353591,19.0260274 74.8328729,20.4931507 C76.0303867,21.960274 77.7914365,22.7054795 80.0925414,22.7054795 C82.3232044,22.7054795 84.0372928,21.960274 85.2348066,20.4931507 C86.4323204,19.0260274 87.0428177,16.9534247 87.0428177,14.2986301 C87.0428177,11.6438356 86.4323204,9.59452055 85.211326,8.15068493 C83.9668508,6.73013699 82.2058011,6.00821918 79.9046961,6.00821918 Z M81.7596685,18.1178082 C81.3370166,18.769863 80.7030387,19.0958904 79.9046961,19.0958904 C79.1533149,19.0958904 78.589779,18.769863 78.1906077,18.1178082 C77.7914365,17.4657534 77.6035912,16.1616438 77.6035912,14.1821918 C77.6035912,11.1315068 78.378453,9.61780822 79.9516575,9.61780822 C81.5953039,9.61780822 82.4406077,11.1547945 82.4406077,14.2520548 C82.4171271,16.1616438 82.1823204,17.4657534 81.7596685,18.1178082 Z M98.6422652,6.45068493 L97.7969613,10.0136986 C97.5856354,10.9219178 97.3743094,11.8534247 97.1864641,12.8082192 L96.7168508,15.2767123 C96.2707182,12.8082192 95.660221,9.8739726 94.8853591,6.45068493 L89.4378453,6.45068493 L87.3950276,22.309589 L91.480663,22.309589 L92.5842541,11.3876712 L95.378453,22.309589 L98.2900552,22.309589 L100.966851,11.4109589 L102.117403,22.309589 L106.390884,22.309589 L104.230663,6.45068493 L98.6422652,6.45068493 L98.6422652,6.45068493 Z M118.201657,6.45068493 L117.356354,10.0136986 C117.145028,10.9219178 116.933702,11.8534247 116.745856,12.8082192 L116.276243,15.2767123 C115.83011,12.8082192 115.219613,9.8739726 114.444751,6.45068493 L108.997238,6.45068493 L106.95442,22.309589 L111.040055,22.309589 L112.143646,11.3876712 L114.937845,22.309589 L117.849448,22.309589 L120.502762,11.4109589 L121.653315,22.309589 L125.926796,22.309589 L123.766575,6.45068493 L118.201657,6.45068493 L118.201657,6.45068493 Z M131.491713,16.0452055 L135.319061,16.0452055 L135.319061,12.7616438 L131.491713,12.7616438 L131.491713,9.85068493 L135.906077,9.85068493 L135.906077,6.4739726 L127.171271,6.4739726 L127.171271,22.3328767 L135.929558,22.3328767 L135.929558,18.9561644 L131.491713,18.9561644 L131.491713,16.0452055 Z M148.092541,13.530137 C148.538674,12.8082192 148.773481,12.0630137 148.773481,11.2945205 C148.773481,9.80410959 148.186464,8.61643836 147.012431,7.75479452 C145.838398,6.89315068 144.218232,6.45068493 142.198895,6.45068493 L137.174033,6.45068493 L137.174033,22.309589 L141.494475,22.309589 L141.494475,15.090411 L141.564917,15.090411 L145.063536,22.309589 L149.618785,22.309589 L146.167127,15.160274 C146.98895,14.7876712 147.646409,14.2520548 148.092541,13.530137 Z M141.470994,13.2739726 L141.470994,9.50136986 C142.504144,9.52465753 143.232044,9.68767123 143.678177,10.0136986 C144.124309,10.339726 144.335635,10.8520548 144.335635,11.5972603 C144.335635,12.6917808 143.372928,13.2506849 141.470994,13.2739726 Z M151.309392,8.31369863 C149.736188,9.85068493 148.961326,11.8068493 148.961326,14.1821918 C148.961326,16.7205479 149.736188,18.7931507 151.285912,20.3534247 C152.835635,21.9136986 154.854972,22.7054795 157.367403,22.7054795 C158.095304,22.7054795 158.917127,22.5890411 159.809392,22.3328767 L159.809392,18.560274 C158.987569,18.7931507 158.283149,18.909589 157.672652,18.909589 C156.428177,18.909589 155.441989,18.490411 154.690608,17.6753425 C153.939227,16.8369863 153.563536,15.7191781 153.563536,14.2986301 C153.563536,12.9712329 153.939227,11.8767123 154.667127,11.0383562 C155.418508,10.1767123 156.334254,9.75753425 157.461326,9.75753425 C158.189227,9.75753425 158.964088,9.8739726 159.809392,10.1068493 L159.809392,6.33424658 C159.03453,6.12465753 158.165746,6.03150685 157.25,6.03150685 C154.878453,6.00821918 152.882597,6.77671233 151.309392,8.31369863 Z M165.327348,18.909589 L165.327348,16.0219178 L169.154696,16.0219178 L169.154696,12.7383562 L165.327348,12.7383562 L165.327348,9.82739726 L169.765193,9.82739726 L169.765193,6.45068493 L161.030387,6.45068493 L161.030387,22.309589 L169.788674,22.309589 L169.788674,18.9328767 L165.327348,18.9328767 L165.327348,18.909589 Z" id="Shape" fill-rule="nonzero"></path>
            </g>
        </g>
        <g id="billingo_logo_2015_vert" transform="translate(64.000000, 122.000000)" fill-rule="nonzero">
            <circle id="Oval" fill="#FF6767" cx="64.108169" cy="21.4895775" r="21.4895775"></circle>
            <path d="M75.4659155,16.5138028 C75.0332394,18.2805634 73.915493,19.8309859 72.4732394,20.9126761 C72.5453521,21.0208451 72.6535211,21.0929577 72.7256338,21.2011268 C73.8794366,22.6433803 74.24,24.6264789 73.7352113,26.6456338 C72.7977465,30.4676056 69.0478873,33.4242254 65.1898592,33.4242254 L59.7814085,33.4242254 C57.5098592,33.4242254 55.5628169,32.5228169 54.3008451,30.9002817 C53.0028169,29.2416901 52.6061972,26.9701408 53.1470423,24.6985915 L56.1757746,12.6197183 C56.6084507,10.8529577 58.2670423,9.55492958 60.0698592,9.55492958 L70.1656338,9.55492958 C71.9323944,9.55492958 73.5549296,10.2760563 74.5284507,11.5740845 C75.5740845,12.908169 75.9346479,14.7109859 75.4659155,16.5138028 Z M70.1656338,13.1605634 L60.0698592,13.1605634 C59.9616901,13.1605634 59.7092958,13.3408451 59.6732394,13.4850704 L56.7166197,25.6 C56.428169,26.8259155 56.5723944,27.943662 57.1853521,28.7008451 C57.7622535,29.4219718 58.6997183,29.8546479 59.8174648,29.8546479 L65.2259155,29.8546479 C67.3892958,29.8546479 69.6969014,27.9797183 70.2377465,25.7802817 C70.4540845,24.8428169 70.3459155,24.0135211 69.8771831,23.4366197 C69.444507,22.8957746 68.7594366,22.6073239 67.9301408,22.6073239 C67.8940845,22.6073239 67.8219718,22.6073239 67.7859155,22.6073239 L62.1611268,22.6073239 L62.1611268,22.6073239 L63.0625352,19.0016901 L67.7859155,19.0016901 C67.8219718,19.0016901 67.8580282,19.0016901 67.8940845,19.0016901 L67.8940845,19.0016901 C67.8940845,19.0016901 67.9301408,19.0016901 67.9301408,19.0016901 C69.6608451,18.9295775 71.4997183,17.3791549 71.9323944,15.6484507 C72.1126761,14.9273239 72.0405634,14.2422535 71.68,13.8095775 C71.3915493,13.3769014 70.8507042,13.1605634 70.1656338,13.1605634 Z" id="Shape" fill="#FFFFFF"></path>
            <g id="Group" transform="translate(0.000000, 51.560563)" fill="#FF6767">
                <path d="M17.595493,0.504788732 L7.49971831,0.504788732 C5.73295775,0.504788732 4.03830986,1.83887324 3.6056338,3.56957746 L0.576901408,15.6484507 C-1.44328993e-15,17.9560563 0.432676056,20.1915493 1.73070423,21.8501408 C2.99267606,23.4726761 4.93971831,24.3740845 7.21126761,24.3740845 L12.6197183,24.3740845 C16.4416901,24.3740845 20.1915493,21.3814085 21.1650704,17.595493 C21.6698592,15.576338 21.3092958,13.5932394 20.155493,12.1509859 C20.0833803,12.0428169 19.9752113,11.9707042 19.9030986,11.8625352 C21.3453521,10.7447887 22.4270423,9.1943662 22.8957746,7.46366197 C23.364507,5.66084507 23.0039437,3.85802817 21.9943662,2.52394366 C20.9487324,1.22591549 19.3622535,0.504788732 17.595493,0.504788732 Z M17.3070423,14.3864789 C17.7757746,14.9633803 17.8839437,15.7926761 17.6676056,16.7301408 C17.1267606,18.9295775 14.8191549,20.804507 12.6557746,20.804507 L7.24732394,20.804507 C6.12957746,20.804507 5.19211268,20.4078873 4.61521127,19.6507042 C4.00225352,18.8574648 3.82197183,17.7397183 4.14647887,16.5498592 L7.17521127,4.47098592 C7.21126761,4.32676056 7.42760563,4.14647887 7.57183099,4.14647887 L17.6676056,4.14647887 C18.3526761,4.14647887 18.8574648,4.3628169 19.2180282,4.79549296 C19.5785915,5.22816901 19.6507042,5.91323944 19.4704225,6.6343662 C19.0377465,8.36507042 17.1988732,9.91549296 15.468169,9.98760563 C15.468169,9.98760563 15.4321127,9.98760563 15.4321127,9.98760563 L15.4321127,9.98760563 C15.3960563,9.98760563 15.36,9.98760563 15.3239437,9.98760563 L10.4923944,9.98760563 L9.59098592,13.5932394 L9.59098592,13.5932394 L15.2157746,13.5932394 C15.251831,13.5932394 15.3239437,13.5932394 15.36,13.5932394 C16.1892958,13.5571831 16.9104225,13.8456338 17.3070423,14.3864789 Z" id="Shape"></path>
                <path d="M127.891831,14.8191549 L126.016901,11.7543662 C125.079437,12.3312676 124.069859,12.5115493 123.27662,12.2952113 C122.807887,12.1509859 122.48338,11.8625352 122.267042,11.4659155 L122.267042,11.4659155 C122.086761,11.0692958 121.834366,10.6726761 121.581972,10.3121127 C120.32,8.68957746 118.372958,7.78816901 116.101408,7.78816901 C111.666479,7.78816901 107.339718,11.2495775 106.221972,15.6484507 C105.64507,17.9560563 106.077746,20.1915493 107.375775,21.8501408 C108.637746,23.4726761 110.584789,24.3740845 112.856338,24.3740845 C117.291268,24.3740845 121.618028,20.9126761 122.735775,16.5138028 C122.807887,16.2974648 122.843944,16.0811268 122.88,15.8647887 C123.27662,15.9369014 123.637183,15.9729577 124.033803,15.9729577 C125.259718,15.9729577 126.629859,15.576338 127.891831,14.8191549 Z M119.166197,15.6484507 C118.481127,18.4247887 115.560563,20.7684507 112.784225,20.7684507 C111.666479,20.7684507 110.729014,20.371831 110.152113,19.6146479 C109.539155,18.8214085 109.358873,17.703662 109.68338,16.5138028 C110.368451,13.7374648 113.289014,11.3938028 116.065352,11.3938028 C117.183099,11.3938028 118.120563,11.7904225 118.697465,12.5476056 C119.310423,13.3047887 119.490704,14.4225352 119.166197,15.6484507 Z" id="Shape"></path>
                <path d="M81.703662,7.78816901 L77.6653521,7.78816901 C75.8985915,7.78816901 74.2039437,9.12225352 73.7712676,10.8529577 L72.5814085,15.6484507 C71.896338,18.4247887 69.3002817,20.7684507 66.9205634,20.7684507 C66.0912676,20.7684507 65.4061972,20.4439437 64.9374648,19.8670423 C64.324507,19.0738028 64.1442254,17.8478873 64.5047887,16.4777465 L66.1273239,10.1678873 L62.3774648,10.1678873 L61.0073239,15.6123944 C61.0073239,15.6123944 61.0073239,15.6123944 61.0073239,15.6123944 L61.0073239,15.6123944 C60.3222535,18.3887324 57.4016901,20.7323944 54.6253521,20.7323944 C53.5076056,20.7323944 52.5701408,20.3357746 51.9932394,19.5785915 C51.3802817,18.7853521 51.2,17.6676056 51.524507,16.4777465 L51.524507,16.4777465 L52.8585915,11.1414085 L54.0484507,6.30985915 C54.3008451,5.22816901 54.8777465,4.3628169 55.5267606,4.00225352 C55.8152113,3.85802817 55.9594366,3.85802817 55.995493,3.85802817 C56.0676056,3.93014085 56.2478873,4.39887324 55.9594366,5.44450704 C55.5267606,7.13915493 54.8056338,8.58140845 53.9042254,9.80732394 L52.2456338,16.4416901 C54.9859155,14.4946479 58.2309859,11.2495775 59.4569014,6.30985915 C60.1780282,3.42535211 59.1684507,1.91098592 58.4833803,1.26197183 C57.5459155,0.36056338 56.1757746,0.036056338 54.8056338,0.432676056 C52.7864789,1.00957746 51.2,2.88450704 50.5509859,5.44450704 L48.0270423,15.6123944 C47.3419718,18.3887324 44.4214085,20.7323944 41.6450704,20.7323944 C40.5273239,20.7323944 39.5898592,20.3357746 39.0129577,19.5785915 C38.4,18.7853521 38.2197183,17.6676056 38.5442254,16.4777465 L38.5442254,16.4777465 L39.8783099,11.1414085 L41.068169,6.30985915 C41.3205634,5.22816901 41.8974648,4.3628169 42.5464789,4.00225352 C42.8349296,3.85802817 42.9791549,3.85802817 43.0152113,3.85802817 C43.0873239,3.93014085 43.2676056,4.39887324 42.9791549,5.44450704 C42.5464789,7.13915493 41.8253521,8.58140845 40.9239437,9.80732394 L39.2653521,16.4416901 C42.0056338,14.4946479 45.2507042,11.2495775 46.4766197,6.30985915 C47.1977465,3.42535211 46.188169,1.91098592 45.5030986,1.26197183 C44.5656338,0.36056338 43.195493,0.036056338 41.8253521,0.432676056 C39.8061972,1.00957746 38.2197183,2.88450704 37.5707042,5.44450704 L35.0467606,15.6123944 C34.3616901,18.3887324 31.7656338,20.7323944 29.3859155,20.7323944 C28.5566197,20.7323944 27.8715493,20.4078873 27.4028169,19.8309859 C26.7898592,19.0377465 26.6095775,17.811831 26.9701408,16.4416901 L28.5926761,10.0957746 L24.8428169,10.0957746 L23.4366197,15.6484507 C22.823662,18.0642254 23.2202817,20.4439437 24.5543662,22.1025352 C25.708169,23.5808451 27.4028169,24.3740845 29.3498592,24.3740845 C31.6935211,24.3740845 34.0371831,23.1842254 35.8039437,21.3453521 C35.9121127,21.5256338 36.0202817,21.6698592 36.1284507,21.8501408 C37.3904225,23.4726761 39.3374648,24.3740845 41.6090141,24.3740845 C44.2411268,24.3740845 46.8011268,23.148169 48.7121127,21.2732394 C48.8202817,21.4895775 48.964507,21.6698592 49.1087324,21.8501408 C50.3707042,23.4726761 52.3177465,24.3740845 54.5892958,24.3740845 C57.1492958,24.3740845 59.7092958,23.2202817 61.5842254,21.3814085 C61.7284507,21.6338028 61.8726761,21.8861972 62.0529577,22.1025352 C63.2067606,23.5808451 64.9014085,24.3740845 66.8484507,24.3740845 C70.8867606,24.3740845 74.9250704,20.9126761 76.0067606,16.5138028 L77.1966197,11.7183099 C77.2326761,11.5740845 77.4490141,11.3938028 77.5932394,11.3938028 L81.6315493,11.3938028 C82.3526761,11.3938028 82.9295775,11.6461972 83.2901408,12.0788732 C83.6867606,12.583662 83.7949296,13.2687324 83.5785915,14.0980282 L80.9825352,24.3740845 L84.7323944,24.3740845 L87.0760563,14.9633803 C87.5447887,13.0884507 87.1842254,11.2495775 86.1385915,9.87943662 C85.1650704,8.50929577 83.5785915,7.78816901 81.703662,7.78816901 Z" id="Path"></path>
                <path d="M98.1814085,7.78816901 C93.7464789,7.78816901 89.4197183,11.2495775 88.3019718,15.6484507 C87.7250704,17.9560563 88.1577465,20.1915493 89.4557746,21.8501408 C90.7177465,23.4726761 92.6647887,24.3740845 94.936338,24.3740845 C96.4867606,24.3740845 98.0371831,23.9414085 99.4433803,23.1842254 L99.1909859,24.2298592 L99.1909859,24.2298592 L97.9650704,29.2056338 L97.3521127,31.6935211 C97.0997183,32.7752113 96.5228169,33.6405634 95.8738028,34.0011268 C95.5853521,34.1453521 95.4411268,34.1453521 95.4050704,34.1453521 C95.3329577,34.0732394 95.1526761,33.604507 95.4411268,32.5588732 C95.7295775,31.4050704 96.3425352,30.5757746 97.1357746,29.8546479 L98.3977465,24.6985915 C98.3256338,24.7346479 98.2895775,24.7707042 98.2535211,24.8067606 C95.8738028,26.1769014 92.9171831,27.9076056 91.9797183,31.6935211 C91.1143662,35.1188732 92.6647887,37.1380282 94.5757746,37.6428169 C94.8642254,37.7149296 95.1887324,37.7509859 95.4771831,37.7509859 C97.6405634,37.7509859 100.020282,35.9842254 100.885634,32.5588732 L104.887887,16.4777465 C105.464789,14.1701408 105.032113,11.9346479 103.734085,10.2760563 C102.4,8.68957746 100.452958,7.78816901 98.1814085,7.78816901 Z M94.936338,20.7684507 C93.8185915,20.7684507 92.8811268,20.371831 92.3042254,19.6146479 C91.6912676,18.8214085 91.5109859,17.703662 91.835493,16.5138028 C92.5205634,13.7374648 95.4411268,11.3938028 98.2174648,11.3938028 C99.3352113,11.3938028 100.272676,11.7904225 100.849577,12.5476056 C101.462535,13.3408451 101.642817,14.4585915 101.31831,15.6484507 C100.597183,18.4247887 97.7126761,20.7684507 94.936338,20.7684507 Z" id="Shape"></path>
                <path d="M64.6129577,8.61746479 C66.0191549,8.61746479 67.4614085,7.46366197 67.8219718,6.05746479 C68.1825352,4.65126761 67.3171831,3.49746479 65.9109859,3.49746479 C64.5047887,3.49746479 63.0625352,4.65126761 62.7019718,6.05746479 C62.3414085,7.46366197 63.2067606,8.61746479 64.6129577,8.61746479 Z" id="Path"></path>
                <path d="M27.0422535,8.61746479 C28.4484507,8.61746479 29.8907042,7.46366197 30.2512676,6.05746479 C30.611831,4.65126761 29.7464789,3.49746479 28.3402817,3.49746479 C26.9340845,3.49746479 25.491831,4.65126761 25.1312676,6.05746479 C24.7707042,7.46366197 25.6360563,8.61746479 27.0422535,8.61746479 Z" id="Path"></path>
            </g>
        </g>
    </g>
</svg>